<?xml version="1.0" encoding="utf-8"?>
<!-- Generator: Adobe Illustrator 26.0.2, SVG Export Plug-In . SVG Version: 6.00 Build 0)  -->
<svg version="1.1" id="圖層_1" xmlns="http://www.w3.org/2000/svg" xmlns:xlink="http://www.w3.org/1999/xlink" x="0px" y="0px"
	 viewBox="0 0 700 700" style="enable-background:new 0 0 700 700;" xml:space="preserve">
<path d="M457.6,325.5c-9.3-4-22-22.5-30.8-44.9c-5.9-15-23.6-59.5-71.6-62.9c-1-0.2-1.9-0.3-3-0.3c-0.5,0-0.9,0.1-1.4,0.1
	c-0.5,0-0.9-0.1-1.4-0.1c-1,0-2,0.1-3,0.3c-48,3.4-65.7,47.9-71.6,62.9c-8.8,22.4-21.5,40.8-30.8,44.9
	c-39.8,17.3-63.6,59.2-58,101.9c5.1,39.1,33.6,67.2,74.2,73.3c4.8,0.7,9.5,1.1,14.3,1.1c13.1,0,26.1-2.6,38.4-7.8
	c5.4-2.3,10.2-4.9,14.9-7.4c8.1-4.4,15.2-8.2,23-9.1c7.7,0.9,14.8,4.7,23,9.1c4.7,2.5,9.6,5.2,14.9,7.4c12.3,5.2,25.4,7.8,38.4,7.8
	c4.8,0,9.6-0.4,14.3-1.1c40.6-6.1,69.1-34.2,74.2-73.3C521.3,384.7,497.4,342.8,457.6,325.5L457.6,325.5z M487.9,423.7
	c-3.5,26.6-22.4,45.1-50.6,49.3c-12.4,1.9-25.8,0.1-37.7-4.8c-4.1-1.7-8.2-3.9-12.5-6.2c-8.9-4.8-18.8-10.1-30.9-12
	c-1.4-0.4-2.9-0.7-4.5-0.6c-0.3,0-0.5,0.1-0.8,0.1c-0.3,0-0.5-0.1-0.8-0.1c-1.5-0.1-3,0.2-4.4,0.6c-12.2,1.8-22.1,7.2-31.1,12
	c-4.3,2.3-8.4,4.5-12.5,6.2c-11.9,5-25.3,6.7-37.7,4.8c-28.2-4.2-47.1-22.6-50.6-49.3c-3.3-24.8,8.3-58.1,41.5-72.6
	c23.9-10.4,39.9-45.6,45.7-60.3c12.3-31.3,27.4-44.9,49.9-45.5c22.6,0.5,37.6,14.2,49.9,45.5c5.8,14.7,21.8,49.9,45.7,60.3
	C479.6,365.6,491.2,398.9,487.9,423.7L487.9,423.7z"/>
<path d="M217.3,309.4c9.1-16.1,12.4-35.8,9.2-55.6c-6.1-38.1-35-66.8-67.2-66.8c-2.9,0-5.8,0.2-8.6,0.7
	c-17.6,2.8-32.6,13.8-42.3,30.8c-9.1,16.1-12.4,35.8-9.2,55.6c6.1,38.1,35,66.8,67.2,66.8c2.9,0,5.8-0.2,8.6-0.7
	C192.6,337.5,207.7,326.5,217.3,309.4z M193,295.6c-5.4,9.5-13.3,15.6-22.4,17c-19.6,3.1-39.6-16.8-43.8-42.9
	c-2.2-13.6-0.1-26.9,5.9-37.4c5.4-9.5,13.3-15.6,22.4-17c1.4-0.2,2.8-0.3,4.2-0.3c18.3,0,35.7,19,39.6,43.3
	C201.1,271.8,199,285.1,193,295.6L193,295.6z"/>
<path d="M268.1,212.8c35.6,0,64.5-34.7,64.5-77.3s-28.9-77.3-64.5-77.3c-35.6,0-64.5,34.7-64.5,77.3S232.5,212.8,268.1,212.8z
	 M268.1,86.2c20.1,0,36.5,22.1,36.5,49.3c0,27.2-16.4,49.3-36.5,49.3c-20.1,0-36.5-22.1-36.5-49.3S248,86.2,268.1,86.2z"/>
<path d="M554.8,188.9c-4.2-1-8.6-1.5-12.9-1.5c-30.8,0-59.3,25.9-67.9,61.5c-4.7,19.5-3,39.5,4.8,56.2c8.3,17.8,22.4,29.9,39.8,34.1
	c4.2,1,8.6,1.5,12.9,1.5h0c30.8,0,59.3-25.9,67.9-61.5c4.7-19.5,3-39.5-4.8-56.2C586.3,205.1,572.2,193,554.8,188.9L554.8,188.9z
	 M572.2,272.5c-5.5,22.9-23,40.1-40.7,40.1c-2.1,0-4.3-0.3-6.3-0.8c-8.9-2.1-16.3-8.8-21-18.7c-5.1-11-6.2-24.4-3-37.8
	c5.5-22.9,23-40.1,40.7-40.1c2.1,0,4.3,0.3,6.3,0.8c8.9,2.1,16.3,8.8,21,18.7C574.3,245.8,575.4,259.2,572.2,272.5L572.2,272.5z"/>
<path d="M431.5,212.8c35.6,0,64.5-34.7,64.5-77.3S467,58.2,431.5,58.2c-35.6,0-64.5,34.7-64.5,77.3
	C367,178.1,395.9,212.8,431.5,212.8z M431.5,86.2c20.1,0,36.5,22.1,36.5,49.3c0,27.2-16.4,49.3-36.5,49.3
	c-20.1,0-36.5-22.1-36.5-49.3C395,108.3,411.4,86.2,431.5,86.2z"/>
</svg>
